<svg width="24" height="24" viewBox="0 0 24 24" fill="none" xmlns="http://www.w3.org/2000/svg">
<path d="M14.25 5.24903C14.1153 4.94132 13.9089 4.67038 13.6479 4.45897C13.3869 4.24756 13.079 4.10184 12.75 4.03403C12.4311 3.96212 12.0997 3.96676 11.7829 4.04758C11.4661 4.12841 11.173 4.28311 10.9275 4.49903L5.15999 9.74903L2.99999 10.634C2.45045 10.8643 2.0147 11.3032 1.78833 11.8544C1.56196 12.4055 1.56346 13.024 1.79249 13.574L2.66249 15.6665C2.83342 16.0784 3.12287 16.4302 3.49409 16.6772C3.86532 16.9242 4.30158 17.0554 4.74749 17.054C4.948 17.0492 5.14709 17.019 5.33999 16.964L6.55499 19.8965C6.66143 20.1533 6.84139 20.3729 7.07224 20.5276C7.30309 20.6824 7.57454 20.7655 7.85249 20.7665C8.03827 20.7662 8.22202 20.7279 8.39249 20.654L9.60749 20.1515C9.94944 20.0059 10.2201 19.7312 10.3605 19.3871C10.501 19.043 10.4999 18.6573 10.3575 18.314L9.35999 15.914L15.51 15.6065C15.8421 15.5919 16.1659 15.4975 16.4538 15.3313C16.7418 15.1651 16.9854 14.932 17.1642 14.6516C17.343 14.3713 17.4516 14.0521 17.4809 13.7209C17.5102 13.3897 17.4593 13.0564 17.3325 12.749L14.25 5.24903ZM4.04999 15.089L3.17999 12.9965C3.13952 12.9046 3.11791 12.8056 3.11645 12.7052C3.11499 12.6048 3.13369 12.5051 3.17146 12.4121C3.20923 12.3191 3.2653 12.2346 3.33633 12.1636C3.40736 12.0927 3.49192 12.0367 3.58499 11.999L5.15999 11.354L5.90999 13.094L6.65999 14.834L5.52749 15.299L5.09249 15.479C4.99935 15.5273 4.89713 15.5555 4.79243 15.5618C4.68772 15.5681 4.58285 15.5523 4.48461 15.5156C4.38636 15.4788 4.29692 15.4219 4.22206 15.3484C4.14719 15.2749 4.08857 15.1866 4.04999 15.089ZM8.94749 18.8015L7.90499 19.2365L6.74999 16.4165L7.76249 15.9965H7.79999L8.94749 18.8015ZM15.9 13.844C15.8527 13.9217 15.7868 13.9864 15.7082 14.0322C15.6296 14.0781 15.5409 14.1036 15.45 14.1065L8.06999 14.474L7.61999 13.3865L6.45749 10.589L11.9325 5.63153C12.0007 5.57014 12.0825 5.52587 12.1712 5.50239C12.2599 5.47892 12.3529 5.47691 12.4425 5.49653C12.5311 5.51653 12.6135 5.55767 12.6827 5.61644C12.7519 5.67521 12.8059 5.74987 12.84 5.83403L15.945 13.334C15.9772 13.4168 15.9899 13.5058 15.9821 13.5943C15.9743 13.6827 15.9462 13.7682 15.9 13.844ZM18.375 8.99903C18.1761 9.03782 17.9699 8.996 17.8018 8.88278C17.6337 8.76955 17.5175 8.5942 17.4787 8.39528C17.4399 8.19637 17.4818 7.9902 17.595 7.82212C17.7082 7.65404 17.8836 7.53782 18.0825 7.49903L20.8575 6.35153C20.9486 6.31411 21.0462 6.29499 21.1447 6.29528C21.2432 6.29556 21.3406 6.31525 21.4315 6.3532C21.5224 6.39116 21.6049 6.44664 21.6744 6.51649C21.7438 6.58634 21.7988 6.66918 21.8362 6.76028C21.8737 6.85139 21.8928 6.94897 21.8925 7.04746C21.8922 7.14596 21.8725 7.24343 21.8346 7.33431C21.7966 7.4252 21.7411 7.50772 21.6713 7.57716C21.6014 7.6466 21.5186 7.70161 21.4275 7.73903L18.66 8.88653C18.573 8.94182 18.4763 8.98001 18.375 8.99903ZM22.3725 10.9865C22.3725 11.1854 22.2935 11.3762 22.1528 11.5169C22.0122 11.6575 21.8214 11.7365 21.6225 11.7365L18.6225 11.6015C18.4301 11.5919 18.2489 11.5087 18.1162 11.369C17.9836 11.2294 17.9097 11.0441 17.91 10.8515C17.9196 10.6592 18.0029 10.4779 18.1425 10.3453C18.2821 10.2126 18.4674 10.1388 18.66 10.139L21.66 10.2665C21.8436 10.2753 22.0176 10.3512 22.1489 10.4797C22.2803 10.6083 22.3598 10.7807 22.3725 10.964V10.9865ZM16.155 6.63653C16.0153 6.49601 15.9369 6.30592 15.9369 6.10778C15.9369 5.90964 16.0153 5.71956 16.155 5.57903L18.2775 3.45653C18.3414 3.37013 18.423 3.29846 18.517 3.24637C18.611 3.19429 18.715 3.163 18.8222 3.15462C18.9293 3.14625 19.0369 3.16099 19.1379 3.19785C19.2388 3.2347 19.3306 3.29281 19.4071 3.36824C19.4836 3.44367 19.5431 3.53466 19.5814 3.63504C19.6196 3.73543 19.6359 3.84287 19.6291 3.9501C19.6222 4.05732 19.5924 4.16183 19.5417 4.25653C19.491 4.35124 19.4205 4.43394 19.335 4.49903L17.25 6.63653C17.1095 6.77622 16.9194 6.85463 16.7212 6.85463C16.5231 6.85463 16.333 6.77622 16.1925 6.63653H16.155Z" fill="#525252"/>
</svg>
