<svg width="13" height="22" viewBox="0 0 13 22" fill="none" xmlns="http://www.w3.org/2000/svg">
<path d="M11.7424 20.9336V4.55652C11.7423 4.38101 11.6846 4.20997 11.5775 4.06757C11.4703 3.92518 11.3191 3.81864 11.1452 3.76302L2.41458 0.976857C2.28331 0.934738 2.14344 0.923154 2.00656 0.943065C1.86968 0.962975 1.73971 1.01381 1.62743 1.09136C1.51514 1.1689 1.42376 1.27094 1.36085 1.38901C1.29793 1.50708 1.26529 1.63781 1.26563 1.77036V20.9336" stroke="#A0A3BD" stroke-width="1.6" stroke-linecap="round" stroke-linejoin="round"/>
<path d="M8.25 15.6553V16.4911" stroke="#A0A3BD" stroke-width="1.6" stroke-linecap="round" stroke-linejoin="round"/>
<path d="M8.25 11.4756V12.3114" stroke="#A0A3BD" stroke-width="1.6" stroke-linecap="round" stroke-linejoin="round"/>
<path d="M8.25 7.29688V8.13272" stroke="#A0A3BD" stroke-width="1.6" stroke-linecap="round" stroke-linejoin="round"/>
<path d="M4.75781 15.6553V16.4911" stroke="#A0A3BD" stroke-width="1.6" stroke-linecap="round" stroke-linejoin="round"/>
<path d="M4.75781 11.4756V12.3114" stroke="#A0A3BD" stroke-width="1.6" stroke-linecap="round" stroke-linejoin="round"/>
<path d="M4.75781 7.29688V8.13272" stroke="#A0A3BD" stroke-width="1.6" stroke-linecap="round" stroke-linejoin="round"/>
</svg>
