<svg width="24" height="24" viewBox="0 0 24 24" fill="none" xmlns="http://www.w3.org/2000/svg">
<path d="M2.4525 18.0376C2.3775 16.7251 2.28 15.0901 3.915 13.4551C4.36482 13.0108 4.9032 12.6664 5.49505 12.4441C6.0869 12.2218 6.71895 12.1267 7.35 12.1651L18.75 1.71009C19.195 1.32152 19.7713 1.11695 20.3617 1.13794C20.9522 1.15893 21.5125 1.40391 21.9288 1.8231C22.3451 2.24229 22.5862 2.80425 22.6032 3.3948C22.6201 3.98536 22.4116 4.56022 22.02 5.00259L11.58 16.3726V16.6426C11.5824 17.2338 11.4669 17.8195 11.2402 18.3655C11.0136 18.9115 10.6803 19.4069 10.26 19.8226C8.23377 21.5984 5.68642 22.6694 3 22.8751C2.53175 22.9109 2.06614 22.7779 1.6875 22.5001C1.58069 22.3931 1.49736 22.265 1.44283 22.1239C1.38832 21.9829 1.3638 21.8321 1.37086 21.681C1.37792 21.53 1.41639 21.3821 1.48383 21.2468C1.55126 21.1115 1.64617 20.9917 1.7625 20.8951C2.565 20.0176 2.5125 19.1476 2.4525 18.0376ZM20.91 3.99009C21.058 3.83446 21.1394 3.62727 21.1371 3.41254C21.1347 3.1978 21.0487 2.99245 20.8974 2.84011C20.746 2.68777 20.5412 2.60046 20.3265 2.59672C20.1118 2.59298 19.9041 2.67311 19.7475 2.82009L9.075 12.6226C9.97557 13.0404 10.7023 13.7592 11.13 14.6551L20.91 3.99009ZM9.2175 18.7501C9.78043 18.1872 10.0967 17.4237 10.0967 16.6276C10.0967 15.8315 9.78043 15.068 9.2175 14.5051C8.65458 13.9422 7.89109 13.6259 7.095 13.6259C6.29891 13.6259 5.53542 13.9422 4.9725 14.5051C3.8175 15.6601 3.8775 16.7176 3.945 17.9401C4.12731 19.1245 3.89411 20.3356 3.285 21.3676C4.68 21.2476 7.6275 20.3476 9.2175 18.7501Z" fill="black"/>
</svg>
